# xmcd
#
# Track frame offsets: 
#        150
#        34020
#        50427
#        68135
#        88787
#        104725
#        123982
#        138885
#        158405
#        176850
#        198555
#        218557
#        240812
#        256475
#        275085
#        291730
#
# Disc length: 4120 seconds
#
# Revision: 0
# Processed by: cddbd v1.4PL0 Copyright (c) Steve Scherf et al.
# Submitted via: ExactAudioCopy v0.90b4
#
DISCID=f0101610
DTITLE=Acoustic Blues Brothers - The Way We Play
DYEAR=2003
DGENRE=Blues
TTITLE0=Tuff Shakin' Medley
TTITLE1=Honey Hush (Talkin' Woman Blues)
TTITLE2=Dark Black Sky
TTITLE3=Walkin' Slide Medley
TTITLE4=Cutie Little Beauty
TTITLE5=Blues Harp Doctor
TTITLE6=Irene, Irene
TTITLE7=Things Have Changed
TTITLE8=Pets and Frogs
TTITLE9=Treat Everybody Right
TTITLE10=Oh, Pretty Woman
TTITLE11=T-Bone Shuffle
TTITLE12=World Trade Center Blues
TTITLE13=Mercedes Blues
TTITLE14=Trackin' On My Baby
TTITLE15=The Last Blues
EXTD=
EXTT0=
EXTT1=
EXTT2=
EXTT3=
EXTT4=
EXTT5=
EXTT6=
EXTT7=
EXTT8=
EXTT9=
EXTT10=
EXTT11=
EXTT12=
EXTT13=
EXTT14=
EXTT15=
PLAYORDER=
